<svg xmlns="http://www.w3.org/2000/svg" viewBox="705.666 1334.864 598.869 208.181">
  <defs>
    <style>
      .cls-1 {
        opacity: 0.95;
      }

      .cls-2 {
        fill: #fcf065;
      }
    </style>
  </defs>
  <g id="Group_9" data-name="Group 9" class="cls-1" transform="translate(705.666 1334.864)">
    <path id="Path_10" data-name="Path 10" class="cls-2" d="M834.466,304.894a21.572,21.572,0,0,1-21.572,21.571H328.588a21.57,21.57,0,0,1-21.569-21.571h0a21.569,21.569,0,0,1,21.569-21.57H812.895a21.571,21.571,0,0,1,21.572,21.57Z" transform="translate(-307.019 -283.324)"/>
    <path id="Path_11" data-name="Path 11" class="cls-2" d="M927.419,414.424A21.7,21.7,0,0,1,905.583,436H415.427A21.7,21.7,0,0,1,393.6,414.424h0a21.7,21.7,0,0,1,21.832-21.569H905.583a21.7,21.7,0,0,1,21.836,21.569Z" transform="translate(-328.55 -310.564)"/>
    <path id="Path_12" data-name="Path 12" class="cls-2" d="M851.005,524.563c0,11.914-8.578,21.572-19.164,21.572H401.7c-10.578,0-19.158-9.657-19.158-21.572h0c0-11.911,8.579-21.569,19.158-21.569H831.842c10.586,0,19.164,9.658,19.164,21.569Z" transform="translate(-325.8 -337.954)"/>
    <g id="Group_6" data-name="Group 6" transform="translate(88.25 41.207)">
      <g id="Group_5" data-name="Group 5" transform="translate(0.272 0.93)">
        <path id="Path_13" data-name="Path 13" class="cls-2" d="M767.953,379.224c-10.134,0-18.352-8.875-18.352-19.82s8.218-19.819,18.352-19.819a17.122,17.122,0,0,1,5.694.976,11.523,11.523,0,0,0-6.258-1.908H430.043a11.152,11.152,0,0,0-4.456.939c.1,0,.193-.008.29-.008,10.135,0,18.352,8.874,18.352,19.819s-8.217,19.82-18.352,19.82c-.47,0-.935-.026-1.4-.063a11.348,11.348,0,0,0,5.562,1.492H767.389a11.974,11.974,0,0,0,7.752-3.008A17.13,17.13,0,0,1,767.953,379.224Z" transform="translate(-424.481 -338.653)"/>
      </g>
    </g>
    <g id="Group_8" data-name="Group 8" transform="translate(137.199 123.985)">
      <g id="Group_7" data-name="Group 7">
        <path id="Path_14" data-name="Path 14" class="cls-2" d="M818.219,490.023c-9.7,0-17.56-9.116-17.56-20.359s7.861-20.359,17.56-20.359a15.345,15.345,0,0,1,5.442,1,10.492,10.492,0,0,0-5.985-1.959H494.951a10.043,10.043,0,0,0-4.261.965c.092,0,.183-.008.276-.008,9.7,0,17.56,9.116,17.56,20.359s-7.862,20.359-17.56,20.359c-.449,0-.893-.026-1.334-.065a10.282,10.282,0,0,0,5.319,1.533H817.676a11.021,11.021,0,0,0,7.415-3.089A15.458,15.458,0,0,1,818.219,490.023Z" transform="translate(-489.632 -448.349)"/>
      </g>
    </g>
  </g>
</svg>
