<svg xmlns="http://www.w3.org/2000/svg" xmlns:xlink="http://www.w3.org/1999/xlink" viewBox="115.106 695.703 1766.974 391.297">
  <defs>
    <style>
      .cls-1 {
        fill: url(#linear-gradient);
      }
    </style>
    <linearGradient id="linear-gradient" x1="0.5" x2="0.5" y2="1" gradientUnits="objectBoundingBox">
      <stop offset="0" stop-color="#2b3779"/>
      <stop offset="1" stop-color="#6973ac"/>
    </linearGradient>
  </defs>
  <g id="Group_1" data-name="Group 1" transform="translate(115.106 695.703)">
    <path id="Path_2" data-name="Path 2" class="cls-1" d="M10,1320.208l134.832-182.374,39.1-32.865,13.484,11.333,16.179,13.6v23.8l72.809,10.2,22.849,40.8v23.8l70.458,20.089,34.783-56.355,9.439-62.332,80.9-86.13,75.506,63.464V1129.9l25.617,21.533,8.091,23.8,64.718,54.4,71.462-31.733,18.877-47.6-8.09-97.463,72.808-47.6,40.451-71.4,16.179,86.13L876.97,1065.3l30.337,25.5,58.195,83.3v148.078Z" transform="translate(-10 -933.842)"/>
    <path id="Path_3" data-name="Path 3" class="cls-1" d="M1578.576,1346.727,1464.2,1207.542l-33.17-25.083-11.439,8.648-13.725,10.38v18.164l-61.764,7.784-19.383,31.136v18.164l-59.769,15.332-29.507-43.009-8.007-47.57-68.626-65.734-64.053,48.436v17.3l-21.732,16.433-6.863,18.163-54.9,41.518-60.62-24.219-16.013-36.326,6.863-74.382-61.764-36.326-34.314-54.491-13.725,65.734,11.436,34.6-25.734,19.461-49.366,63.571V1348.23Z" transform="translate(188.398 -956.932)"/>
  </g>
</svg>
